<svg width="23" height="23" viewBox="0 0 23 23" fill="none" xmlns="http://www.w3.org/2000/svg">
<path d="M22.9912 5.97042C22.9872 5.48982 22.9822 5.00018 22.9822 4.50557C22.9822 4.22979 22.7583 4.00595 22.4826 4.00595C22.2068 4.00595 21.9829 4.22979 21.9829 4.50557C21.9829 12.1046 17.8243 13.0798 14.2011 13.0798C13.9483 13.0798 13.7005 13.0758 13.4607 13.0678C13.2968 11.8947 12.4765 11.0004 11.4912 11.0004C10.517 11.0004 9.70368 11.8767 9.5308 13.0678C9.28298 13.0758 9.02818 13.0807 8.7694 13.0807C5.09529 13.0807 1.29833 12.0595 0.998568 4.48557C0.987561 4.2088 0.747751 4.00094 0.479978 4.00595C0.204243 4.01696 -0.0106022 4.24876 0.000404735 4.52454C0.000404735 4.52355 0.000404735 4.52552 0.000404735 4.52754C0.032395 5.3449 0.0403575 6.14527 0.0473832 6.91866C0.0793735 10.317 0.107336 13.2517 2.18867 14.8903C4.71066 16.8738 8.47868 18.9941 11.4913 18.9941C14.5039 18.9941 18.2709 16.8738 20.7939 14.8903C23.0582 13.1078 23.0271 9.80036 22.9912 5.97042Z" fill="white"/>
<path d="M5.32712 11.1283C5.8437 11.1283 6.42524 10.7746 7.16069 10.3259C8.14091 9.7274 9.36095 8.98399 10.628 8.98399C10.7319 8.98399 10.8378 8.989 10.9937 9.00296C11.1625 9.00296 11.3284 8.97097 11.4943 8.90502C11.6642 8.96998 11.794 9.00895 12.0438 8.99996C13.4257 8.85509 14.7647 9.67841 15.8258 10.3259C16.5612 10.7746 17.1428 11.1283 17.6594 11.1283C17.9272 11.1283 18.162 11.0333 18.3419 10.8545C18.5328 10.6636 18.6047 10.3959 18.5367 10.1201C18.216 8.79814 13.8794 6.54992 12.6384 6.15924C12.5764 6.12926 12.5135 6.10926 12.4096 6.08032C12.2627 6.03835 12.1328 6.01437 11.9939 6.00439C11.825 6.00439 11.6591 6.03638 11.4933 6.10233C11.3254 6.03737 11.1555 6.00941 10.9567 6.00641C10.8548 6.01442 10.7279 6.03938 10.541 6.09034C10.4751 6.10833 10.4111 6.12931 10.4171 6.13132C9.10718 6.54898 4.77163 8.7972 4.44985 10.1192C4.3839 10.3949 4.45486 10.6627 4.64568 10.8536C4.82455 11.0334 5.05935 11.1283 5.32712 11.1283Z" fill="white"/>
</svg>
