<svg width="15" height="15" viewBox="0 0 15 15" fill="none" xmlns="http://www.w3.org/2000/svg">
<path d="M8.24138 5.90561C8.0138 5.90561 7.79991 5.99422 7.63893 6.1552L4.95513 8.839C4.79422 8.99998 4.70561 9.21387 4.70561 9.44145C4.70561 9.66895 4.79422 9.88292 4.95513 10.0438C5.11603 10.2047 5.33 10.2933 5.5575 10.2933C5.785 10.2933 5.99897 10.2047 6.15995 10.0438L8.84383 7.35995C9.17596 7.02781 9.17589 6.48733 8.84375 6.15512C8.68285 5.99422 8.46895 5.90561 8.24138 5.90561ZM6.06607 9.33574L5.85303 9.54879C5.79747 9.60442 5.72446 9.63227 5.65159 9.63227C5.57873 9.63227 5.50572 9.60442 5.45016 9.54879C5.33883 9.43753 5.33883 9.25711 5.45016 9.14592L5.6632 8.93288C5.77439 8.82155 5.95496 8.82155 6.06607 8.93288C6.17733 9.04414 6.17733 9.22456 6.06607 9.33574ZM7.19219 8.20963L6.97914 8.42267C6.92359 8.4783 6.85058 8.50615 6.77771 8.50615C6.70484 8.50615 6.63184 8.4783 6.57628 8.42267C6.46495 8.31141 6.46495 8.13099 6.57628 8.01981L6.78932 7.80676C6.90051 7.69543 7.08107 7.69543 7.19219 7.80676C7.30352 7.91795 7.30352 8.09837 7.19219 8.20963ZM8.34879 7.05303L8.13575 7.26607C8.08019 7.3217 8.00718 7.34955 7.93431 7.34955C7.86145 7.34955 7.78844 7.3217 7.73288 7.26607C7.62155 7.15481 7.62155 6.97439 7.73288 6.8632L7.94592 6.65016C8.05711 6.53883 8.23767 6.53883 8.34879 6.65016C8.46005 6.76135 8.46005 6.94177 8.34879 7.05303ZM14.9154 4.10112C14.8042 3.98979 14.6236 3.98979 14.5125 4.10112L14.1509 4.46274L13.7502 4.06209L14.1119 3.70039C14.2233 3.58913 14.2233 3.40871 14.1119 3.29752C14.0007 3.18619 13.8202 3.18619 13.7091 3.29752L13.3474 3.65922L12.9468 3.25856L13.3084 2.89694C13.4197 2.78568 13.4197 2.60526 13.3084 2.49407C13.1972 2.38274 13.0167 2.38274 12.9055 2.49407L12.5439 2.8557L12.1433 2.45504L12.5049 2.09341C12.6162 1.98215 12.6162 1.80173 12.5049 1.69055C12.3937 1.57922 12.2131 1.57922 12.102 1.69055L11.7404 2.05217L11.3397 1.65151L11.7014 1.28989C11.8127 1.17863 11.8127 0.998209 11.7014 0.887022C11.5902 0.775692 11.4096 0.775692 11.2985 0.887022L10.9369 1.24865L10.5362 0.847988L10.8978 0.486363C11.0092 0.375105 11.0092 0.194684 10.8978 0.0834972C10.7866 -0.0278324 10.6061 -0.0278324 10.495 0.0834972L9.93191 0.646555C9.92756 0.6509 9.92457 0.655886 9.92058 0.660445C9.91695 0.664576 9.9126 0.667853 9.90918 0.672198L6.38895 5.15985C5.98822 5.67063 5.55259 6.16203 5.09416 6.62046L0.679089 11.0357C-0.226363 11.9411 -0.226363 13.4144 0.679089 14.3198C1.11771 14.7584 1.70093 15 2.32125 15C2.94158 15 3.52472 14.7584 3.96335 14.3198L8.37842 9.90471C8.83727 9.44593 9.32875 9.01023 9.8391 8.61L14.3268 5.08984C14.3311 5.08642 14.3344 5.08207 14.3384 5.07844C14.3429 5.07445 14.348 5.07139 14.3523 5.06711L14.9154 4.50406C15.0267 4.3928 15.0267 4.21238 14.9154 4.10112ZM9.24669 7.76281L6.56282 10.4467C6.29429 10.7153 5.93729 10.8632 5.5575 10.8632C5.17771 10.8632 4.82072 10.7153 4.55219 10.4467C4.28366 10.1782 4.13579 9.82116 4.13579 9.44145C4.13579 9.06166 4.28366 8.70459 4.55226 8.43606L7.23606 5.75226C7.50467 5.48366 7.86159 5.33579 8.24138 5.33579C8.62109 5.33579 8.97816 5.48366 9.24669 5.75219C9.80099 6.30663 9.80099 7.20859 9.24669 7.76281Z" fill="white"/>
</svg>
